<svg data-v-423bf9ae="" xmlns="http://www.w3.org/2000/svg" viewBox="0 0 153.99462703836159 60" class="font"><!----><!----><!----><g data-v-423bf9ae="" id="8c065c68-7795-4112-8f99-927ef14d3a98" fill="white" transform="matrix(5.3619300390009315,0,0,5.3619300390009315,-2.627347458905959,-9.32975903425271)"><path d="M3.04 5.80L3.04 5.80Q2.42 6.46 2.05 6.46L2.05 6.46Q1.64 6.46 1.32 5.93L1.32 5.93Q1.00 5.41 1.00 4.83Q1.00 4.25 1.28 3.82Q1.56 3.38 2.02 3.05Q2.47 2.71 3.07 2.47Q3.66 2.22 4.29 2.06L4.29 2.06Q5.55 1.74 6.41 1.74Q7.27 1.74 7.85 1.81Q8.43 1.89 8.97 2.05Q9.51 2.21 9.99 2.47Q10.47 2.73 10.83 3.09L10.83 3.09Q11.59 3.88 11.59 5.05L11.59 5.05Q11.59 6.27 10.83 7.55L10.83 7.55Q10.09 8.78 8.91 9.60L8.91 9.60Q7.66 10.45 6.39 10.45L6.39 10.45Q5.77 10.45 5.30 10.14L5.30 10.14Q5.07 9.99 5.07 9.78Q5.06 9.57 5.07 9.40L5.07 9.40Q5.13 8.70 5.38 7.75L5.38 7.75Q5.88 7.95 6.45 7.95Q7.01 7.95 7.39 7.83Q7.77 7.71 8.15 7.49Q8.52 7.27 8.88 6.97Q9.23 6.67 9.50 6.30L9.50 6.30Q10.10 5.50 10.10 4.77Q10.10 4.05 9.77 3.63Q9.43 3.21 8.91 2.95L8.91 2.95Q7.94 2.47 6.50 2.47L6.50 2.47Q5.26 2.47 3.97 2.97L3.97 2.97Q3.07 3.32 2.67 3.87L2.67 3.87Q2.47 4.16 2.47 4.50L2.47 4.50Q2.47 5.27 3.04 5.80ZM0.49 12.21L0.49 12.21Q0.83 11.84 1.31 10.93Q1.78 10.01 2.11 9.34Q2.45 8.67 2.81 7.97Q3.18 7.27 3.56 6.57Q3.95 5.88 4.35 5.26L4.35 5.26Q5.23 3.91 5.96 3.36L5.96 3.36Q6.04 3.29 6.14 3.29Q6.24 3.29 6.34 3.33L6.34 3.33Q6.57 3.40 6.74 3.56L6.74 3.56Q5.89 4.25 4.98 7.15L4.98 7.15Q4.72 7.96 4.47 8.77Q4.22 9.58 4.00 10.34Q3.77 11.09 3.54 11.66L3.54 11.66Q3.06 12.93 2.67 12.93L2.67 12.93Q1.46 12.93 0.78 12.43L0.78 12.43Q0.61 12.31 0.49 12.21ZM16.17 5.12Q15.89 5.26 15.56 5.33Q15.24 5.40 15.00 5.40Q14.76 5.40 14.57 5.34Q14.38 5.28 14.23 5.17L14.23 5.17Q13.90 4.94 13.90 4.60Q13.90 4.27 14.02 4.03Q14.14 3.80 14.36 3.64L14.36 3.64Q14.85 3.28 15.53 3.28Q16.21 3.28 16.52 3.56Q16.83 3.84 16.83 4.20Q16.83 4.57 16.64 4.77Q16.45 4.98 16.17 5.12ZM10.90 11.87L10.90 11.87Q10.76 11.56 10.76 11.11Q10.76 10.66 10.95 10.17Q11.15 9.67 11.45 9.17Q11.76 8.67 12.13 8.21Q12.51 7.75 12.88 7.40L12.88 7.40Q13.69 6.62 14.08 6.62L14.08 6.62Q14.24 6.62 14.44 6.76Q14.64 6.90 14.70 6.97L14.70 6.97Q13.67 8.08 13.39 9.11L13.39 9.11Q13.30 9.43 13.30 9.72Q13.30 10.02 13.53 10.26Q13.75 10.49 14.09 10.49Q14.42 10.49 14.71 10.37Q15.00 10.24 15.29 10.04L15.29 10.04Q15.84 9.62 16.26 9.00L16.26 9.00Q16.56 8.98 16.56 9.25L16.56 9.25Q16.56 9.47 16.28 9.96Q16.00 10.45 15.72 10.80Q15.44 11.15 15.08 11.49Q14.72 11.83 14.29 12.10L14.29 12.10Q13.34 12.70 12.34 12.70L12.34 12.70Q11.28 12.70 10.90 11.87ZM17.62 12.70L17.58 12.69L17.45 12.70Q16.37 12.70 15.80 12.17L15.80 12.17Q15.26 11.67 15.26 10.81L15.26 10.81Q15.26 9.64 16.20 8.57L16.20 8.57Q17.11 7.53 18.41 7.11L18.41 7.11Q18.37 6.80 18.63 6.60L18.63 6.60Q18.83 6.46 19.27 6.46Q19.71 6.46 20.12 6.54Q20.53 6.62 20.95 6.90L20.95 6.90Q21.85 7.50 21.85 8.50L21.85 8.50Q21.85 9.59 21.31 10.57L21.31 10.57Q22.48 10.32 23.37 9.00L23.37 9.00Q23.67 8.98 23.67 9.25L23.67 9.25Q23.67 9.36 23.60 9.52L23.60 9.52Q22.67 11.72 19.89 12.44L19.89 12.44Q18.89 12.70 17.62 12.70L17.62 12.70ZM17.47 9.70L17.47 9.70Q17.47 10.49 18.13 10.49L18.13 10.49Q18.69 10.49 19.26 9.82L19.26 9.82Q19.85 9.11 19.85 8.39L19.85 8.39Q19.85 7.65 19.14 7.41L19.14 7.41Q17.92 7.75 17.58 8.94L17.58 8.94Q17.47 9.30 17.47 9.70ZM27.95 3.16L27.95 3.16Q28.71 3.16 28.71 4.44L28.71 4.44Q28.71 6.13 26.66 8.00L26.66 8.00Q25.88 8.72 25.02 9.24L25.02 9.24Q25.11 10.29 25.79 10.45L25.79 10.45Q26.01 10.49 26.31 10.49Q26.61 10.49 26.95 10.41Q27.30 10.34 27.64 10.16L27.64 10.16Q28.40 9.77 28.90 9.00L28.90 9.00Q29.21 8.98 29.21 9.25L29.21 9.25Q29.21 9.36 29.06 9.71Q28.92 10.06 28.52 10.61Q28.12 11.17 27.57 11.62L27.57 11.62Q26.30 12.66 24.75 12.66L24.75 12.66Q22.96 12.66 22.58 11.13L22.58 11.13Q22.46 10.65 22.46 10.06Q22.46 9.47 22.63 8.87Q22.81 8.26 23.11 7.67Q23.41 7.08 23.81 6.51Q24.21 5.95 24.66 5.45Q25.11 4.95 25.57 4.53Q26.04 4.11 26.48 3.80L26.48 3.80Q27.41 3.16 27.95 3.16ZM25.02 8.42L25.02 8.42Q26.17 7.70 26.95 6.69L26.95 6.69Q27.75 5.67 27.75 4.89L27.75 4.89Q27.75 4.50 27.59 4.33L27.59 4.33Q27.54 4.27 27.40 4.27Q27.26 4.27 27.02 4.45Q26.77 4.62 26.51 4.92Q26.25 5.22 26.00 5.63Q25.75 6.04 25.55 6.49L25.55 6.49Q25.09 7.53 25.02 8.42Z"></path></g><!----><!----></svg>